PathFileType	4	(X/Y/Z)	OpenSim_Sub08_CSBaseline_Gyro.trc
DataRate	CameraRate	NumFrames	NumMarkers	Units	OrigDataRate	OrigDataStartFrame	OrigNumFrames
100	100	17	8	m	100	1366	5461
Frame#	Time	torso_imu_offset_imu	pelvis_imu_offset_imu	tibia_r_imu_offset_imu	femur_r_imu_offset_imu	tibia_l_imu_offset_imu	femur_l_imu_offset_imu	toes_r_imu_offset_imu	toes_l_imu_offset_imu
				X1	Y1	Z1	X2	Y2	Z2	X3	Y3	Z3	X4	Y4	Z4	X5	Y5	Z5	X6	Y6	Z6	X7	Y7	Z7	X8		Y8	Z8	

1366	13.65000000	-0.16989000	0.25468600	-0.13587800	-0.05720600	0.15089300	0.25001900	-1.36739900	-0.61826600	-1.28326300	0.73999900	-0.33845400	0.06436600	0.11992800	0.06533900	1.27341500	0.19861400	-0.06762900	0.59036000	-0.53341100	-0.55436100	-1.48422500	-0.05299000	-0.66622900	0.07811200
1367	13.66000000	-0.15585400	0.28271200	-0.14036300	-0.03596100	0.17294700	0.23048700	-1.18537800	-0.67166900	-1.58603100	1.03287600	-0.33832800	-0.00735000	0.09148000	0.06541700	1.28136400	0.32982300	-0.03272900	0.63095300	-0.63151800	-0.74373700	-1.73844500	0.09860900	-0.71939000	0.06514000
1368	13.67000000	-0.13243100	0.32893000	-0.14592500	-0.00960100	0.21481200	0.22360300	-0.86024900	-0.74276800	-1.83085200	1.15868800	-0.29646400	-0.10612400	0.06258900	0.08916300	1.34091900	0.44052400	0.01050300	0.67411000	-1.38553800	-0.44640500	-1.76257800	0.06535600	-0.77399800	0.04461300
1369	13.68000000	-0.10417300	0.39467600	-0.15066200	0.01397500	0.28011400	0.20359300	-0.71247600	-0.87094400	-1.90427200	1.19534100	-0.27943200	-0.22372700	0.06048200	0.09559900	1.39352100	0.45200900	0.02952500	0.69134400	1.64333800	-0.95500200	-2.23252200	0.14185100	-0.87942900	0.01377100
1370	13.69000000	-0.07391800	0.45898800	-0.14535900	0.00741900	0.34083300	0.19478700	-1.21941500	-0.99963500	-1.48830900	1.20652400	-0.37436100	-0.37163000	0.09716500	0.10670500	1.41509500	0.38326300	0.00807800	0.69121200	1.37154700	-1.10155800	-1.79635800	0.17623100	-1.02631800	-0.00745600
1371	13.70000000	-0.05268300	0.51587400	-0.13375200	-0.10924300	0.32618600	0.19558900	-1.92720300	-0.67235900	-0.37982700	0.99943700	-0.46135200	-0.57333000	0.14817600	0.10141600	1.47036100	0.30040400	-0.03334800	0.66123000	0.71494000	-2.57985700	-0.99969300	0.23582900	-1.17321800	-0.01553200
1372	13.71000000	-0.00390700	0.58398500	-0.13504500	-0.31533600	0.23349700	0.20023400	-0.83564700	-0.28754500	0.49998900	0.51535000	-0.39451700	-0.84020000	0.19286000	0.09311400	1.55626900	0.21711900	-0.07576600	0.60815700	0.68118100	-4.03093800	-0.44800600	0.31857400	-1.41054400	0.02453000
1373	13.72000000	0.03750000	0.66113500	-0.13972200	-0.57160800	0.12516900	0.21050000	1.17333700	-0.29939300	0.43179200	-0.18949100	-0.19762300	-0.96813100	0.23619200	0.06277800	1.65304700	0.12527900	-0.09412000	0.55254100	1.29778500	-3.38408900	-0.15789800	0.42260000	-1.63667300	0.05568700
1374	13.73000000	0.06442300	0.71494300	-0.14435500	-0.72057800	0.09439500	0.22108700	2.36340300	-0.50001900	-0.39116000	-0.75722300	-0.03617700	-0.93804800	0.32981100	0.06925400	1.73457800	-0.00452400	-0.08955800	0.52141200	1.83887500	-2.60634600	-0.57986500	0.46090700	-1.96657900	0.04017300
1375	13.74000000	0.08617000	0.73612000	-0.13645700	-0.81219000	0.12630600	0.20891200	2.64721500	-0.73874000	-1.39848500	-0.96462600	0.03840000	-0.85207100	0.44272500	0.10826700	1.83682000	-0.15940100	-0.06140200	0.49172500	0.67151600	-2.80990000	-1.01399100	0.64536100	-2.27924800	-0.01605600
1376	13.75000000	0.10020800	0.72584400	-0.12389700	-0.95911900	0.16556800	0.17544200	2.51998600	-0.61757100	-1.77468100	-1.06803300	0.14785300	-0.62864700	0.54118000	0.14101900	1.99686100	-0.34648100	-0.04908600	0.40071500	-0.79577100	-2.70906200	-0.90348700	0.62376900	-2.70084900	-0.06199600
1377	13.76000000	0.10706600	0.71286200	-0.13773200	-1.18401500	0.16782000	0.11878700	2.83641100	-0.23977500	-1.48075300	-1.03091700	0.14100400	-0.23980000	0.60210300	0.17803900	2.15083500	-0.52011100	-0.04837200	0.30905900	-0.22740400	-2.07330200	-0.46805400	0.59803700	-3.10296100	-0.08087600
1378	13.77000000	0.10434700	0.68500600	-0.13712300	-1.38905900	0.11776200	0.07132100	3.06357900	-0.16608600	-0.97036300	-0.70981000	-0.12555000	0.03321900	0.66531600	0.21331400	2.27461100	-0.73707200	-0.03085100	0.16371400	0.51619400	-1.93156600	0.05043300	0.47002400	-3.50045400	-0.08084200
1379	13.78000000	0.10450900	0.64893400	-0.13886600	-1.47119300	0.07457100	0.03561500	2.24508100	-0.29800200	-0.73558100	-0.15678400	-0.37887200	0.05798800	0.70525000	0.22326100	2.38100300	-0.94146000	0.00141300	0.00830400	2.09707700	-0.69672700	0.05457800	0.39002300	-3.96358400	-0.07716900
1380	13.79000000	0.10981700	0.60221900	-0.15054200	-1.42074000	0.06778300	-0.00120000	0.97720900	-0.85368700	-0.91516000	0.36940600	-0.38457900	-0.17196600	0.79021700	0.20366200	2.49197800	-1.09557000	0.09160400	-0.12857100	2.28443100	-0.55629200	-0.16986800	0.30119800	-4.45653700	-0.05363900
1381	13.80000000	0.11159500	0.55660000	-0.17248300	-1.22947200	0.10575100	-0.03310800	-0.10775100	-1.36641100	-1.27061100	0.56717800	-0.26717900	-0.45818100	0.87399200	0.20124500	2.60238200	-1.15697100	0.24263200	-0.41384900	0.06311000	-0.43588900	-0.20618900	0.40262000	-5.02460100	-0.08251600
1382	13.81000000	0.13091200	0.51408800	-0.17737700	-0.88967600	0.13820900	-0.04357400	-0.94046000	-1.01666100	-1.30787700	0.37584200	-0.21196500	-0.65454900	0.97588700	0.23154500	2.71863100	-1.04183700	0.42293300	-0.59457600	0.29046600	-0.23226200	-0.32150800	0.24511000	-5.51627900	-0.10045700
